<?xml version="1.0" standalone="no"?>
<!DOCTYPE svg PUBLIC "-//W3C//DTD SVG 20010904//EN"
 "http://www.w3.org/TR/2001/REC-SVG-20010904/DTD/svg10.dtd">
<svg version="1.0" xmlns="http://www.w3.org/2000/svg"
 width="709.000000pt" height="709.000000pt" viewBox="0 0 709.000000 709.000000"
 preserveAspectRatio="xMidYMid meet">

<g transform="translate(0.000000,709.000000) scale(0.100000,-0.100000)"
fill="#000000" stroke="none">
<path d="M1405 6974 c-130 -27 -254 -82 -351 -155 -73 -55 -103 -86 -157 -157
-70 -95 -82 -118 -131 -257 l-31 -90 0 -2030 c0 -1944 1 -2033 19 -2100 39
-148 123 -292 232 -396 108 -102 230 -167 389 -207 65 -16 202 -17 2060 -17
1885 0 1994 1 2065 18 186 45 281 97 405 221 88 89 145 174 183 274 66 174 62
23 62 2204 0 1918 -1 1979 -19 2055 -72 291 -240 485 -516 597 -118 47 -35 46
-2180 45 -1105 -1 -2019 -3 -2030 -5z m3680 -914 l0 -365 -230 -5 c-254 -6
-316 -16 -363 -59 -50 -46 -57 -88 -57 -356 l0 -240 323 -3 c283 -2 323 -4
329 -18 3 -9 0 -55 -6 -102 -7 -48 -17 -132 -21 -187 -19 -222 -40 -396 -50
-415 -10 -19 -23 -20 -293 -22 l-282 -3 -5 -1065 -5 -1065 -435 0 -435 0 -5
1065 -5 1065 -215 5 -215 5 0 365 0 365 215 5 215 5 5 345 c4 235 10 354 18
373 7 16 12 43 12 60 1 18 7 43 15 57 8 14 14 33 15 42 0 15 31 84 77 173 22
42 182 198 224 217 134 64 168 76 249 95 109 25 201 30 570 29 l355 -1 0 -365z"/>
<path d="M3386 1525 c-13 -14 -31 -51 -39 -83 -34 -123 -155 -825 -163 -947
-6 -75 -4 -82 20 -114 14 -19 26 -46 26 -59 0 -33 61 -89 106 -98 204 -38 479
185 562 456 45 147 38 257 -21 325 -59 67 -153 58 -281 -25 -79 -52 -171 -145
-229 -233 -22 -32 -40 -57 -42 -55 -4 4 56 298 80 388 9 36 32 112 52 170 43
128 56 255 28 283 -25 25 -72 21 -99 -8z m400 -630 c50 -77 -25 -287 -151
-423 -61 -66 -151 -119 -218 -128 -41 -6 -48 -4 -83 29 l-38 35 29 67 c45 106
120 212 219 311 126 126 207 162 242 109z"/>
<path d="M482 1528 c-19 -6 -56 -31 -83 -56 -77 -69 -113 -153 -155 -361 -23
-120 -26 -126 -69 -172 -25 -27 -45 -57 -45 -68 0 -11 14 -30 30 -43 38 -28
38 -42 4 -304 -29 -228 -32 -300 -14 -335 17 -32 29 -39 66 -39 64 0 66 6 69
216 2 181 24 392 45 442 8 18 18 22 52 22 24 0 85 6 136 14 100 15 132 33 132
73 l0 23 -137 0 c-76 0 -144 4 -152 9 -32 21 8 246 65 367 51 107 138 147 177
80 7 -11 14 -61 17 -111 4 -73 8 -90 22 -93 42 -8 95 116 86 206 -5 51 -24 85
-67 117 -30 23 -129 30 -179 13z"/>
<path d="M5976 1440 c-14 -17 -30 -48 -35 -68 -13 -48 -45 -294 -71 -552 -26
-261 -28 -273 -51 -405 -34 -194 -34 -190 -10 -214 28 -28 73 -27 105 2 22 20
25 30 29 137 l5 115 47 42 c26 24 50 43 55 43 9 0 80 -77 185 -200 117 -137
185 -172 272 -139 43 16 83 59 83 90 0 24 -4 27 -47 31 -27 3 -66 13 -88 23
-46 21 -259 229 -270 264 -5 18 0 30 27 58 39 41 153 122 254 182 41 24 76 52
83 67 25 56 4 104 -47 104 -48 0 -108 -39 -223 -146 -222 -207 -319 -287 -319
-265 0 45 43 325 76 496 41 211 52 312 35 343 -18 33 -63 29 -95 -8z"/>
<path d="M1934 1036 c-128 -59 -296 -298 -339 -479 -40 -171 0 -297 110 -348
54 -25 158 -25 234 1 133 45 275 155 269 208 -5 42 -32 38 -121 -16 -108 -66
-196 -96 -261 -88 -86 10 -118 45 -118 128 2 181 219 532 300 482 9 -6 27 -41
39 -79 25 -76 38 -95 63 -95 66 0 80 149 23 237 -49 76 -109 91 -199 49z"/>
<path d="M2719 1041 c-111 -44 -210 -146 -284 -296 -109 -223 -93 -438 39
-520 46 -28 56 -30 146 -30 91 0 100 2 175 39 101 50 220 162 230 219 16 86
-13 87 -105 3 -82 -75 -169 -122 -244 -131 -99 -13 -164 28 -173 107 -6 51 -3
54 107 118 97 56 208 139 255 191 101 112 113 259 25 304 -39 20 -114 18 -171
-4z m85 -97 c11 -4 16 -19 16 -44 0 -43 -43 -105 -109 -159 -58 -45 -183 -131
-192 -131 -13 0 29 109 65 168 38 63 105 131 151 155 33 18 46 20 69 11z"/>
<path d="M1095 1020 c-142 -55 -324 -277 -390 -473 -49 -148 -33 -263 45 -315
91 -61 266 21 406 190 26 32 49 56 50 55 1 -1 4 -25 8 -52 18 -157 62 -235
132 -235 38 0 94 42 94 71 0 10 -13 28 -29 40 -16 12 -37 40 -47 62 -27 59
-25 251 4 413 12 67 22 126 22 132 0 19 -31 42 -55 42 -17 0 -29 9 -40 29 -8
17 -25 37 -37 45 -30 21 -102 19 -163 -4z m108 -113 c41 -29 37 -158 -7 -244
-55 -110 -201 -269 -280 -307 -112 -53 -141 66 -58 237 104 217 271 369 345
314z"/>
<path d="M4380 1008 c-78 -30 -181 -136 -238 -245 -104 -200 -108 -386 -12
-496 54 -60 109 -81 196 -74 159 12 341 169 416 356 33 83 33 244 -1 318 -28
64 -105 138 -157 152 -60 17 -143 12 -204 -11z m188 -125 c15 -11 37 -39 50
-64 21 -39 23 -54 20 -129 -5 -110 -36 -179 -117 -264 -66 -68 -131 -106 -195
-113 -79 -9 -130 62 -128 180 2 155 107 347 216 399 50 23 117 19 154 -9z"/>
<path d="M5263 1016 c-63 -20 -107 -51 -167 -118 -135 -149 -206 -384 -161
-535 20 -66 82 -136 140 -159 67 -25 158 -15 243 27 83 41 203 159 249 244 70
133 82 280 34 392 -28 64 -104 137 -157 152 -51 14 -129 13 -181 -3z m165
-133 c15 -11 37 -39 50 -64 21 -39 23 -54 20 -129 -5 -110 -36 -179 -117 -264
-67 -69 -125 -103 -193 -112 -38 -5 -48 -3 -75 20 -80 67 -74 231 14 398 63
120 146 183 232 174 24 -2 55 -13 69 -23z"/>
</g>
</svg>
