<?xml version="1.0" standalone="no"?>
<!DOCTYPE svg PUBLIC "-//W3C//DTD SVG 20010904//EN"
 "http://www.w3.org/TR/2001/REC-SVG-20010904/DTD/svg10.dtd">
<svg version="1.0" xmlns="http://www.w3.org/2000/svg"
 width="472.000000pt" height="472.000000pt" viewBox="0 0 472.000000 472.000000"
 preserveAspectRatio="xMidYMid meet">

<g transform="translate(0.000000,472.000000) scale(0.100000,-0.100000)"
fill="#000000" stroke="none">
<path d="M1475 4569 c-166 -9 -270 -45 -402 -142 -109 -81 -193 -197 -248
-342 l-30 -80 -2 -925 c-1 -509 2 -914 7 -900 5 16 8 19 9 8 1 -9 6 -20 11
-23 6 -4 10 -3 9 2 -4 18 14 93 22 93 5 0 12 -18 15 -40 8 -47 15 -45 23 7 5
29 11 39 28 41 13 2 23 12 25 25 2 12 9 21 16 19 6 -1 12 5 12 15 0 9 3 14 6
10 4 -3 13 0 21 8 7 8 31 19 51 24 20 6 45 19 54 30 10 12 24 18 37 14 14 -4
23 1 28 13 6 17 8 17 13 -4 3 -13 5 244 5 570 0 671 1 678 77 838 78 162 234
282 425 327 71 16 131 18 653 18 651 0 659 -1 813 -77 151 -75 267 -222 312
-393 8 -33 20 -112 25 -175 13 -153 13 -854 0 -1014 -18 -217 -76 -353 -202
-471 -126 -119 -274 -171 -530 -184 -84 -4 -130 -9 -101 -10 45 -1 51 -3 48
-20 -2 -10 4 -27 13 -37 35 -39 50 -88 54 -176 1 -36 6 -49 20 -54 24 -7 23
-24 -2 -24 -26 0 -26 -16 0 -30 11 -6 18 -15 15 -20 -10 -16 103 -22 298 -17
218 5 265 15 397 79 120 59 248 187 308 308 86 172 82 123 82 1152 0 1007 1
992 -65 1135 -96 208 -266 351 -480 402 -75 19 -129 20 -915 23 -459 2 -889 0
-955 -3z"/>
<path d="M1822 3960 c-169 -18 -283 -79 -350 -190 -48 -80 -62 -138 -74 -305
-11 -155 -3 -863 11 -960 l7 -50 7 34 c5 24 10 32 18 24 7 -7 21 -5 47 9 20
10 38 14 40 9 2 -5 18 -5 40 0 51 12 162 11 162 -1 0 -5 6 -7 14 -4 13 5 160
-21 177 -31 3 -3 12 2 19 9 10 13 14 12 30 -2 15 -12 17 -18 7 -25 -8 -6 -5
-7 9 -4 18 4 20 0 16 -22 -5 -26 -5 -26 17 -7 18 16 25 17 47 8 14 -7 23 -16
20 -21 -3 -5 1 -12 10 -15 22 -8 26 -8 19 4 -16 25 63 -5 83 -32 7 -10 31 -23
52 -29 22 -7 59 -30 83 -52 23 -21 56 -49 72 -60 17 -12 41 -34 53 -49 13 -16
28 -28 34 -28 12 0 38 -26 38 -38 0 -6 -6 -13 -12 -15 -7 -3 3 -6 22 -7 32 -2
33 -3 10 -10 -23 -7 -23 -8 -6 -15 29 -13 345 3 412 20 135 35 222 104 274
218 50 110 54 175 54 717 -1 418 -3 506 -17 568 -41 187 -134 287 -314 339
-50 14 -130 16 -553 19 -272 1 -532 -2 -578 -6z m1234 -223 c38 -42 49 -73 40
-121 -17 -91 -117 -140 -202 -100 -93 44 -100 189 -11 245 25 16 44 19 86 16
47 -3 59 -9 87 -40z m-536 -145 c184 -65 327 -205 384 -376 95 -282 -34 -596
-296 -726 -88 -43 -191 -70 -271 -70 -69 0 -193 28 -249 56 -26 13 -48 20 -48
16 0 -5 10 -14 23 -20 12 -6 18 -11 12 -11 -5 0 -32 13 -60 29 -27 16 -45 30
-40 30 6 0 21 -7 33 -16 30 -21 27 -3 -3 19 -14 10 -30 15 -35 12 -6 -4 -9 -1
-8 7 2 7 -3 12 -9 11 -7 -2 -12 0 -11 5 1 4 -16 26 -37 50 -58 63 -113 157
-138 237 -31 100 -31 263 1 356 68 197 235 355 429 404 80 20 249 14 323 -13z
m-626 -1037 c-7 -16 -24 -21 -24 -6 0 8 7 13 27 20 1 1 0 -6 -3 -14z"/>
<path d="M2270 3400 c-113 -19 -219 -101 -272 -208 -31 -62 -33 -74 -33 -167
0 -87 3 -107 27 -157 74 -158 251 -251 418 -218 121 23 225 105 278 218 24 50
27 69 27 157 0 87 -3 107 -26 155 -55 115 -160 197 -283 219 -66 12 -71 12
-136 1z"/>
<path d="M1940 2490 c0 -5 5 -10 10 -10 6 0 10 5 10 10 0 6 -4 10 -10 10 -5 0
-10 -4 -10 -10z"/>
<path d="M292 1195 c-52 -23 -145 -123 -176 -190 -39 -82 -46 -167 -17 -222
21 -43 58 -78 93 -89 33 -10 41 10 19 48 -42 71 -36 190 15 291 26 54 61 97
77 97 5 0 7 -156 4 -392 -3 -315 -7 -403 -20 -445 -15 -52 -15 -53 5 -53 29 0
103 78 119 125 9 29 14 145 16 422 l4 382 -23 14 c-36 23 -80 28 -116 12z"/>
<path d="M1550 1190 c-5 -10 -10 -50 -10 -89 l0 -71 -65 0 c-55 0 -66 -3 -75
-21 -6 -11 -10 -30 -8 -42 3 -20 10 -22 71 -25 l67 -3 0 -152 c0 -165 -10
-203 -65 -269 l-25 -30 0 29 c-1 58 -35 109 -114 168 l-75 57 29 52 c49 86 36
126 -41 126 -23 0 -41 -10 -70 -39 -43 -42 -50 -83 -27 -147 10 -29 8 -38 -27
-100 -85 -152 -127 -202 -147 -172 -4 7 -8 99 -8 205 l0 192 -37 26 c-21 14
-48 25 -61 25 -65 0 -125 -70 -178 -209 l-33 -86 -1 137 0 137 -39 12 c-75 22
-72 32 -69 -267 3 -252 4 -266 23 -280 11 -8 36 -14 55 -12 33 3 35 5 41 49
11 77 48 198 85 277 34 76 78 142 93 142 4 0 6 -80 4 -177 -5 -201 5 -258 48
-282 61 -34 131 24 231 191 39 65 74 121 78 123 13 8 117 -112 123 -142 7 -37
-16 -89 -42 -98 -14 -4 -38 3 -70 21 -43 25 -51 26 -66 14 -22 -18 -36 -56
-29 -75 10 -24 109 -48 176 -42 95 8 177 72 221 169 15 34 27 36 27 5 0 -42
30 -113 59 -141 18 -17 44 -30 68 -33 35 -4 45 -1 77 27 20 18 47 52 58 74
l21 41 17 -41 c51 -118 190 -135 272 -33 l32 40 10 -33 c6 -18 26 -43 46 -56
50 -34 104 -26 148 23 l34 36 34 -35 c58 -60 147 -59 214 4 39 36 40 36 40 7
0 -16 -28 -49 -95 -111 -126 -116 -170 -195 -146 -259 9 -23 16 -27 49 -27 37
0 38 0 34 35 -6 49 30 116 100 189 l59 61 -4 -105 c-2 -65 -10 -119 -20 -142
l-16 -38 45 0 c44 0 46 1 67 48 18 40 22 71 25 196 l4 150 53 70 c58 79 111
172 146 259 l23 57 44 0 44 0 -9 -52 c-4 -29 -8 -98 -8 -153 0 -84 4 -108 23
-146 23 -48 80 -89 123 -89 31 0 84 33 99 61 12 21 12 21 50 -16 50 -48 100
-56 165 -25 25 12 56 38 70 57 l24 36 15 -36 c17 -43 68 -77 112 -77 35 0 80
30 89 60 10 30 25 24 25 -10 0 -36 32 -53 89 -48 l36 3 7 109 c8 118 44 257
78 297 l19 24 1 -58 c0 -89 20 -248 35 -284 16 -39 58 -59 91 -45 18 9 22 22
27 84 6 74 46 228 71 276 12 22 14 8 18 -121 5 -132 8 -151 32 -200 41 -85
116 -111 175 -61 49 41 81 179 42 179 -8 0 -20 -21 -28 -50 -19 -64 -43 -91
-70 -77 -33 18 -43 79 -43 265 l0 176 -26 20 c-14 11 -42 23 -62 27 -29 6 -39
3 -54 -16 -20 -25 -88 -230 -88 -267 0 -14 -4 -21 -10 -18 -6 4 -10 57 -10
125 0 109 -2 121 -23 145 -14 17 -36 28 -62 31 -48 7 -54 0 -101 -131 l-33
-90 -1 96 c0 108 -4 115 -66 125 l-41 6 -6 -83 c-4 -46 -7 -134 -7 -195 0
-101 -2 -115 -28 -165 -31 -61 -57 -72 -88 -38 -17 19 -19 38 -20 231 -1 235
-2 238 -72 238 -26 0 -35 -5 -39 -21 -5 -20 -7 -19 -34 7 -38 37 -111 44 -156
15 -77 -48 -117 -162 -115 -328 1 -99 -2 -115 -20 -138 -12 -16 -28 -25 -41
-23 -63 9 -83 137 -48 306 23 112 19 137 -23 148 -13 3 -41 1 -62 -5 -22 -6
-51 -11 -66 -11 -23 0 -27 5 -30 31 -4 44 -33 61 -78 46 -28 -10 -38 -20 -50
-54 -13 -40 -13 -44 9 -74 l23 -31 -27 -73 c-24 -67 -82 -175 -106 -200 -7 -7
-9 56 -8 185 l2 195 -24 12 c-38 20 -80 16 -86 -8 -5 -20 -7 -19 -34 7 -35 34
-102 43 -147 20 -81 -42 -124 -150 -126 -318 -2 -102 -5 -122 -23 -145 -28
-38 -63 -37 -83 2 -12 24 -15 71 -15 228 0 185 -1 200 -19 213 -30 22 -87 18
-93 -5 -5 -19 -6 -19 -32 5 -32 30 -61 38 -107 31 -87 -14 -146 -110 -165
-267 -6 -52 -19 -113 -28 -135 -22 -49 -63 -88 -87 -83 -39 7 -44 42 -41 278
l2 225 80 3 c82 3 95 9 95 48 0 18 -8 22 -46 28 -26 3 -64 6 -85 6 l-39 0 0
80 c0 88 0 88 -77 103 -26 5 -35 2 -43 -13z m544 -393 c19 -25 21 -42 21 -145
0 -98 -4 -125 -22 -164 -27 -60 -64 -85 -99 -69 -82 37 -80 313 2 396 25 24
73 16 98 -18z m540 0 c18 -25 21 -43 21 -130 0 -58 -6 -123 -14 -150 -17 -59
-62 -110 -93 -105 -93 13 -105 301 -15 396 29 31 73 26 101 -11z m939 2 c14
-20 20 -49 24 -110 13 -212 -93 -359 -164 -226 -21 39 -24 209 -5 273 26 90
100 122 145 63z"/>
</g>
</svg>
