<?xml version="1.0" standalone="no"?>
<!DOCTYPE svg PUBLIC "-//W3C//DTD SVG 20010904//EN"
 "http://www.w3.org/TR/2001/REC-SVG-20010904/DTD/svg10.dtd">
<svg version="1.0" xmlns="http://www.w3.org/2000/svg"
 width="709.000000pt" height="709.000000pt" viewBox="0 0 709.000000 709.000000"
 preserveAspectRatio="xMidYMid meet">

<g transform="translate(0.000000,709.000000) scale(0.100000,-0.100000)"
fill="#000000" stroke="none">
<path d="M960 5904 c-252 -49 -449 -243 -500 -494 -8 -40 -10 -577 -8 -1940 3
-1621 6 -1890 18 -1922 8 -21 18 -38 22 -38 5 0 8 -9 8 -19 0 -21 56 -100 98
-137 33 -29 122 -74 151 -77 11 -1 21 -5 21 -9 0 -4 252 -8 560 -8 l560 0 0
1180 c0 1130 1 1180 18 1180 13 0 377 -263 502 -363 158 -127 1094 -818 1103
-814 10 4 235 169 287 210 8 7 31 23 50 37 19 13 37 27 40 30 3 3 248 188 545
410 297 222 542 407 545 410 3 3 21 17 40 30 19 13 41 30 48 37 7 7 22 13 32
13 10 0 22 5 25 10 3 6 1 10 -4 10 -8 0 -11 273 -11 900 0 495 -3 900 -8 900
-4 0 -18 -10 -32 -23 -14 -12 -41 -33 -60 -47 -19 -13 -37 -27 -40 -30 -3 -3
-36 -28 -75 -55 -38 -27 -72 -52 -75 -55 -3 -3 -21 -17 -40 -30 -19 -13 -37
-27 -40 -30 -3 -3 -21 -17 -40 -30 -19 -13 -37 -27 -40 -30 -3 -3 -230 -174
-505 -380 -275 -206 -502 -377 -505 -380 -3 -3 -21 -17 -40 -30 -19 -14 -44
-32 -54 -42 -11 -10 -28 -20 -38 -24 -13 -4 -141 87 -460 326 -244 182 -450
337 -458 343 -8 7 -31 23 -50 37 -19 13 -37 27 -40 30 -3 3 -21 17 -40 30 -19
13 -37 27 -40 30 -3 3 -21 17 -40 30 -19 13 -37 27 -40 30 -3 4 -90 70 -195
149 -104 78 -198 149 -208 157 -10 8 -26 18 -36 22 -15 6 -410 299 -421 312
-3 4 -32 24 -65 46 -121 80 -196 104 -335 109 -58 2 -116 1 -130 -1z"/>
<path d="M6470 4639 c0 -5 5 -7 10 -4 6 3 10 8 10 11 0 2 -4 4 -10 4 -5 0 -10
-5 -10 -11z"/>
<path d="M6094 4359 c-19 -22 -19 -22 4 -8 12 8 22 17 22 21 0 12 -6 9 -26
-13z"/>
<path d="M6020 4305 c-11 -13 -10 -14 4 -9 9 3 16 10 16 15 0 13 -6 11 -20 -6z"/>
<path d="M5635 4020 c-3 -5 -1 -10 4 -10 6 0 11 5 11 10 0 6 -2 10 -4 10 -3 0
-8 -4 -11 -10z"/>
</g>
</svg>
