<?xml version="1.0" standalone="no"?>
<!DOCTYPE svg PUBLIC "-//W3C//DTD SVG 20010904//EN"
 "http://www.w3.org/TR/2001/REC-SVG-20010904/DTD/svg10.dtd">
<svg version="1.0" xmlns="http://www.w3.org/2000/svg"
 width="709.000000pt" height="709.000000pt" viewBox="0 0 709.000000 709.000000"
 preserveAspectRatio="xMidYMid meet">

<g transform="translate(0.000000,709.000000) scale(0.100000,-0.100000)"
fill="#000000" stroke="none">
<path d="M3533 6932 c-27 -2 -43 -8 -43 -16 0 -9 -23 -15 -72 -19 -95 -8 -261
-47 -271 -64 -4 -7 -20 -13 -35 -13 -15 0 -49 -7 -76 -15 -27 -8 -64 -15 -83
-15 -21 0 -32 -4 -28 -10 8 -13 -56 -40 -81 -34 -10 3 -37 -4 -59 -16 -21 -11
-44 -20 -51 -20 -6 0 -19 -9 -28 -19 -10 -11 -31 -23 -47 -26 -27 -6 -29 -9
-23 -43 6 -43 -10 -96 -29 -89 -7 2 -11 19 -9 43 4 65 -7 70 -69 35 -52 -30
-53 -31 -23 -31 17 0 43 9 58 21 l26 20 0 -25 c0 -48 -88 -77 -125 -40 -9 9
-19 14 -22 10 -4 -3 8 -22 26 -40 18 -19 30 -39 27 -45 -11 -17 -19 -14 -58
24 l-36 35 -41 -35 -42 -34 40 -44 c29 -31 37 -47 31 -57 -7 -12 -18 -6 -55
30 -25 24 -45 50 -45 57 0 16 -8 16 -39 -1 l-25 -14 33 -7 c35 -8 71 -54 71
-92 0 -11 -16 -40 -35 -63 -19 -23 -35 -53 -35 -66 0 -13 -4 -24 -8 -24 -5 0
-41 34 -81 75 -40 41 -75 75 -77 75 -2 0 -4 -5 -4 -11 0 -19 -30 -41 -58 -43
-17 -1 -43 -18 -72 -47 -25 -24 -63 -58 -84 -75 -43 -34 -45 -64 -3 -64 32 0
99 -50 126 -93 15 -25 21 -50 21 -97 0 -103 -43 -164 -141 -201 -58 -21 -100
-19 -154 8 -69 35 -103 85 -107 157 -3 49 -23 61 -48 31 -14 -17 -70 -21 -70
-5 0 11 -67 -61 -93 -100 -9 -13 -17 -35 -17 -47 0 -13 -4 -23 -10 -23 -5 0
-10 -6 -10 -14 0 -20 -49 -109 -68 -123 -21 -17 -32 -16 -32 2 0 12 -9 9 -35
-12 -43 -33 -74 -76 -50 -67 18 7 19 0 4 -27 -8 -16 -14 -18 -24 -9 -11 9 -12
7 -9 -7 4 -13 -4 -22 -26 -31 -22 -10 -30 -20 -30 -38 0 -14 -4 -22 -10 -19
-5 3 -13 -7 -16 -22 -4 -15 -16 -34 -26 -41 -12 -9 -16 -20 -12 -37 3 -12 1
-26 -5 -29 -5 -4 -7 -14 -4 -23 4 -10 -3 -22 -18 -34 -17 -13 -19 -19 -9 -19
27 0 104 -86 96 -106 -6 -15 -13 -11 -51 26 -27 27 -45 38 -45 29 0 -8 5 -20
11 -26 8 -8 8 -17 0 -31 -8 -15 -7 -23 4 -32 17 -14 20 -72 4 -101 -8 -16 -13
-18 -24 -9 -11 9 -12 17 -5 30 12 23 13 50 1 50 -5 0 -7 -9 -4 -20 3 -12 -1
-22 -11 -26 -9 -3 -16 -17 -16 -31 0 -13 -4 -22 -9 -19 -5 3 -11 -16 -14 -42
-13 -106 -26 -171 -41 -200 -19 -36 -29 -98 -27 -163 0 -26 -6 -60 -14 -75 -8
-16 -15 -43 -15 -61 0 -29 -15 -52 -26 -40 -3 3 -7 40 -10 83 -4 85 -8 95 -28
73 -19 -19 -39 -151 -25 -160 7 -4 9 -22 4 -49 -4 -23 -4 -86 0 -140 6 -82 10
-97 23 -96 25 2 29 -44 4 -51 -28 -7 -41 -151 -16 -188 9 -13 16 -42 17 -62 0
-21 2 -30 4 -20 6 24 21 21 34 -6 7 -16 7 -56 1 -127 -9 -94 -7 -118 14 -230
30 -153 45 -202 96 -307 29 -61 45 -83 59 -83 10 0 19 -6 19 -13 0 -7 26 -53
59 -102 32 -50 79 -128 103 -175 25 -47 57 -103 72 -124 14 -21 26 -44 26 -51
0 -6 9 -20 20 -30 11 -10 24 -32 28 -49 5 -19 16 -32 29 -36 23 -5 83 -74 83
-94 0 -7 11 -27 25 -46 14 -19 25 -42 25 -52 0 -9 29 -48 65 -85 36 -37 65
-71 65 -74 0 -4 14 -22 31 -40 17 -18 35 -44 40 -56 5 -13 15 -23 22 -23 8 0
28 -15 45 -34 17 -19 45 -37 61 -41 21 -4 31 -13 31 -24 0 -18 61 -70 169
-146 30 -21 65 -50 79 -66 13 -16 32 -29 41 -29 10 0 26 -9 37 -21 10 -12 40
-32 67 -45 26 -13 47 -31 47 -40 0 -8 4 -12 10 -9 10 6 170 -82 170 -95 0 -4
17 -10 38 -14 22 -3 56 -17 77 -32 22 -15 46 -23 58 -20 10 2 16 2 13 -1 -9
-9 40 -43 61 -42 13 0 10 3 -9 10 -18 7 -29 20 -33 39 -5 24 -13 30 -43 35
-57 10 -82 23 -82 44 0 14 -10 21 -37 26 -21 4 -47 15 -58 25 -19 17 -68 46
-190 109 -27 14 -68 45 -91 67 -23 23 -56 46 -73 52 -43 15 -123 82 -117 98 5
14 -24 44 -43 44 -6 0 -14 7 -17 15 -6 14 -41 31 -57 27 -5 -1 -6 2 -3 7 4 5
-5 18 -19 29 -14 11 -25 25 -25 30 0 6 -15 21 -33 33 -41 29 -81 69 -74 76 4
3 -19 37 -50 75 -38 47 -59 65 -64 57 -6 -10 -11 -10 -23 0 -18 15 -22 41 -6
41 5 0 -14 30 -42 67 -74 98 -138 199 -138 218 0 10 -13 34 -28 54 -16 20 -43
63 -61 96 -18 33 -51 92 -72 130 -21 39 -54 113 -73 164 -19 51 -44 103 -55
115 -12 12 -21 34 -21 48 0 14 -7 31 -15 38 -11 9 -14 23 -10 44 6 29 -1 39
-106 144 -62 61 -110 114 -108 116 5 5 164 -149 179 -174 8 -13 10 -12 10 3 0
10 -5 28 -11 39 -6 11 -7 23 -3 27 14 10 17 101 3 101 -6 0 -9 8 -6 20 3 10
-1 24 -9 31 -8 6 -14 23 -15 38 0 14 -4 35 -8 46 -5 11 -4 25 1 32 6 7 4 23
-7 43 -10 20 -14 42 -10 60 4 19 1 37 -10 54 -10 14 -15 32 -12 39 3 7 -1 21
-9 32 -14 19 -19 57 -8 68 11 11 34 -5 34 -24 0 -10 5 -19 11 -19 17 0 39 -33
30 -45 -4 -5 -3 -47 2 -92 8 -69 12 -82 29 -86 13 -4 19 -11 15 -21 -3 -8 -2
-18 3 -21 5 -3 8 -19 8 -35 -1 -16 4 -36 10 -43 7 -8 15 -35 18 -61 5 -32 11
-45 21 -44 11 2 15 -10 18 -45 1 -26 0 -49 -4 -52 -8 -4 29 -128 42 -141 4 -4
7 -18 7 -31 0 -13 6 -23 13 -23 7 0 13 -16 14 -43 1 -47 68 -233 91 -256 8 -9
10 -17 5 -18 -6 -2 -7 -17 -3 -36 5 -24 11 -31 27 -30 15 2 26 -10 46 -50 14
-29 31 -68 38 -89 7 -22 17 -34 25 -31 15 5 54 -31 54 -50 0 -17 20 -37 37
-37 7 0 32 -19 55 -43 41 -40 43 -41 46 -18 2 13 -2 28 -8 35 -9 8 -11 6 -5
-13 11 -38 -14 -21 -52 33 -38 56 -40 66 -13 66 11 0 20 -7 20 -15 0 -8 15
-21 33 -28 32 -14 32 -14 45 21 30 86 108 142 195 142 120 0 197 -77 197 -195
0 -31 -6 -70 -14 -88 -18 -41 -71 -92 -118 -112 -36 -14 -37 -16 -25 -42 6
-15 21 -37 32 -49 37 -41 45 -53 45 -69 0 -9 9 -15 21 -15 12 0 37 -16 56 -35
33 -34 51 -46 38 -25 -11 17 8 11 47 -16 36 -25 42 -35 39 -60 -1 -7 9 -9 23
-7 17 4 28 -2 40 -18 9 -13 16 -20 16 -16 0 4 18 -4 40 -18 22 -14 44 -25 50
-25 5 0 10 -6 10 -14 0 -8 14 -19 32 -25 17 -6 39 -18 48 -26 11 -10 25 -12
43 -7 26 7 22 12 -138 171 -90 91 -163 166 -161 168 6 7 346 -329 341 -337 -3
-5 28 -20 67 -35 40 -15 87 -34 105 -41 17 -8 36 -14 43 -14 6 0 35 -15 63
-34 29 -18 96 -52 149 -76 53 -23 102 -48 109 -56 6 -8 23 -14 38 -14 35 0 93
-17 101 -30 3 -6 38 -12 76 -15 38 -2 104 -7 147 -11 78 -7 91 -2 60 22 -10 7
-16 15 -13 17 3 3 61 -2 130 -10 89 -10 194 -14 361 -11 212 4 238 6 255 22
15 15 27 17 73 12 44 -5 53 -4 43 6 -6 6 -12 29 -12 50 0 31 8 47 41 83 45 49
54 53 62 30 4 -8 -8 -29 -28 -49 -18 -19 -36 -44 -40 -55 -12 -38 31 -82 50
-51 4 6 11 8 16 4 5 -3 15 -1 22 4 7 5 21 11 32 14 17 3 14 9 -23 42 -47 43
-50 51 -25 60 18 7 79 -45 89 -76 3 -12 12 -17 22 -14 77 20 258 80 262 85 3
4 37 20 75 35 111 44 289 143 416 233 79 55 187 139 214 167 7 6 28 26 49 44
21 18 34 37 30 44 -4 6 -3 8 4 5 18 -12 187 177 299 333 63 88 175 279 200
340 8 19 25 55 38 80 27 53 77 195 104 297 l18 71 -39 39 c-44 44 -58 96 -35
127 19 26 52 15 37 -13 -5 -11 -10 -26 -10 -34 0 -15 49 -77 61 -77 4 0 9 18
13 39 4 30 1 48 -14 73 -13 22 -18 44 -14 63 6 33 42 78 55 69 5 -3 9 -2 9 3
0 36 31 337 36 344 3 5 1 9 -4 9 -5 0 -12 48 -16 108 -11 173 -50 428 -75 487
-5 11 -26 74 -46 140 -20 66 -49 147 -65 180 -15 33 -41 90 -57 126 -61 133
-251 428 -273 422 -7 -2 -158 150 -190 192 -14 19 -14 19 5 5 11 -8 53 -49 94
-90 l74 -75 -53 63 c-77 91 -230 242 -246 242 -8 0 -14 7 -14 15 0 21 -13 19
-35 -5 -20 -22 -114 -60 -148 -60 -44 0 -121 46 -151 89 -36 52 -46 136 -23
191 l15 35 -46 27 c-157 92 -370 178 -572 230 -162 42 -188 48 -265 58 -64 9
-84 16 -101 36 -12 13 -31 24 -42 24 -11 0 -23 4 -26 9 -3 5 -15 7 -26 4 -12
-3 -20 0 -20 7 0 14 -70 9 -255 -17 -197 -27 -191 -27 -208 -3 -13 19 -21 21
-74 16 -103 -9 -337 -68 -351 -88 -7 -10 -24 -18 -36 -18 -13 0 -37 -7 -52
-15 -44 -23 -64 -19 -64 10 0 18 9 31 33 45 28 16 33 25 30 47 -5 30 -7 29 90
75 39 18 81 29 137 34 66 5 83 10 91 26 9 17 17 19 51 14 27 -4 50 -1 74 10
24 12 38 13 47 6 9 -8 19 -5 37 8 29 22 50 26 50 8 0 -9 3 -9 12 0 7 7 27 9
53 5 48 -6 182 14 191 29 4 6 59 9 138 8 72 -1 142 -1 156 0 l25 1 -22 11
c-27 13 -30 26 -5 28 25 2 84 1 104 -2 9 -2 18 2 20 7 4 12 -112 24 -119 12
-3 -5 -19 -6 -37 -3 -17 3 -53 8 -80 11 -55 7 -69 12 -61 24 7 13 -197 22
-363 16 -107 -4 -152 -3 -147 4 11 19 -14 12 -35 -9 -15 -15 -33 -20 -76 -20
-34 0 -53 -4 -49 -10 4 -6 -6 -10 -23 -10 -17 0 -32 -6 -35 -13 -7 -19 -106
-42 -120 -28 -9 9 -9 16 0 30 14 23 4 37 -11 16 -8 -11 -21 -13 -48 -9 -21 4
-38 10 -38 14 0 23 157 80 221 80 21 0 50 5 66 12 52 21 157 32 290 31 97 -1
132 2 130 10 -3 18 104 22 114 5 6 -9 9 -10 9 -1 0 21 62 26 110 9 60 -21 160
-22 160 -1 0 8 -8 15 -19 15 -24 0 -43 23 -45 55 -1 29 -42 43 -75 26 -14 -8
-20 -8 -23 0 -2 7 -33 12 -78 13 -41 0 -81 5 -87 9 -9 5 -13 3 -13 -7 0 -12
-10 -16 -39 -16 -22 0 -43 4 -46 10 -3 5 -26 7 -51 5 -25 -3 -53 -1 -62 3 -9
4 -36 6 -59 4z m412 -822 c185 -27 431 -100 597 -179 392 -186 700 -463 932
-838 81 -131 189 -388 230 -545 45 -176 60 -308 60 -543 -1 -205 -4 -246 -27
-376 -24 -134 -69 -285 -127 -429 -59 -148 -216 -413 -298 -505 l-36 -40 34
-6 c98 -16 170 -99 170 -197 0 -55 -45 -138 -93 -173 -23 -16 -47 -27 -54 -25
-7 3 -13 1 -13 -4 0 -16 -87 -12 -128 5 -63 27 -107 81 -121 148 l-6 29 -85
-70 c-294 -240 -674 -403 -1060 -454 -150 -19 -451 -14 -600 10 -454 76 -863
291 -1185 623 -306 317 -481 666 -574 1144 -40 209 -34 469 18 730 37 183 58
254 126 417 99 237 234 442 414 631 l65 67 -34 35 c-19 19 -29 35 -23 35 6 0
23 -14 37 -31 l26 -31 68 59 c351 307 772 487 1232 527 78 7 371 -2 455 -14z
m225 -20 c0 -5 -5 -10 -11 -10 -5 0 -7 5 -4 10 3 6 8 10 11 10 2 0 4 -4 4 -10z
m-2732 -523 c6 -5 12 -15 12 -21 0 -19 -87 -99 -99 -92 -17 11 -14 20 19 53
35 35 24 55 -15 29 -17 -11 -25 -26 -25 -44 0 -35 16 -52 51 -52 30 0 42 12
56 54 13 41 33 45 33 7 0 -42 -18 -77 -47 -90 -93 -42 -172 56 -113 139 27 38
90 47 128 17z m-137 -158 c38 -41 38 -81 0 -120 -52 -52 -128 -34 -151 35 -9
28 -8 40 4 65 32 61 100 70 147 20z m-192 -93 c8 -10 9 -16 1 -21 -21 -13 -9
-47 32 -91 34 -36 39 -47 27 -54 -10 -7 -25 1 -52 28 -50 48 -61 75 -47 118
13 37 21 41 39 20z m4977 -1927 c3 -6 -27 -45 -70 -88 -42 -42 -81 -83 -86
-91 -17 -27 -11 -59 15 -76 27 -17 48 -13 84 16 l24 20 -38 35 c-22 22 -35 41
-31 50 9 24 21 18 65 -30 44 -48 54 -94 28 -130 -18 -23 -40 -11 -31 18 5 20
5 20 -7 5 -24 -30 -66 -40 -104 -24 -39 16 -55 42 -55 86 0 23 12 43 46 80 26
27 52 47 58 43 6 -3 8 -2 3 2 -7 9 70 95 84 95 5 0 11 -5 15 -11z m30 -95 c24
-25 44 -49 44 -54 0 -27 -28 -17 -71 26 -37 37 -46 51 -37 61 15 18 16 18 64
-33z m-248 -178 c15 -8 42 -30 60 -49 27 -28 31 -36 19 -46 -12 -9 -22 -3 -55
29 -44 45 -72 50 -103 19 -26 -26 -18 -52 29 -101 28 -30 33 -41 24 -50 -9 -9
-22 -2 -57 32 -38 38 -45 50 -45 84 0 30 7 47 27 68 30 31 60 35 101 14z
m-4418 -298 c0 -5 -56 47 -125 114 -69 68 -125 127 -125 133 0 5 56 -46 125
-115 69 -69 125 -128 125 -132z m4280 157 c60 -31 67 -95 18 -150 -27 -31 -33
-34 -45 -22 -13 12 -11 18 11 40 30 30 33 62 9 89 -23 26 -47 22 -87 -12 l-34
-31 53 -50 c45 -43 73 -94 59 -108 -6 -6 -154 141 -154 154 0 6 19 29 43 52
59 57 79 63 127 38z m-840 -865 c22 -22 40 -61 40 -85 0 -8 -13 -29 -29 -47
-22 -25 -36 -32 -66 -32 -30 0 -44 7 -66 32 -31 35 -36 60 -18 95 29 56 101
75 139 37z m-165 -130 c43 -16 42 -37 -5 -85 -24 -24 -49 -41 -56 -38 -20 8
-17 16 16 49 34 34 37 44 12 44 -54 0 -70 -87 -19 -104 36 -13 59 1 73 45 13
39 30 48 38 21 9 -28 -8 -66 -41 -92 -78 -61 -185 46 -127 128 26 38 65 49
109 32z m-164 -112 c1 -7 0 -28 -1 -47 -1 -27 6 -41 36 -72 31 -31 36 -41 25
-51 -10 -11 -21 -4 -57 34 -46 49 -56 87 -34 129 12 21 29 25 31 7z m-76 -89
c4 -6 -1 -17 -11 -24 -18 -13 -16 -17 36 -70 44 -45 52 -57 40 -65 -16 -10
-31 1 -82 55 -15 17 -25 37 -23 45 3 8 -5 3 -18 -12 -26 -32 -33 -34 -41 -11
-5 11 5 29 31 55 38 39 57 46 68 27z"/>
<path d="M3615 5319 c-166 -21 -363 -97 -502 -195 -83 -58 -194 -164 -186
-177 3 -6 1 -7 -5 -3 -6 3 -23 -10 -38 -29 l-27 -36 59 -60 c32 -32 54 -59 49
-59 -4 0 -32 25 -62 55 l-53 54 -31 -42 c-42 -57 -107 -187 -136 -272 -36
-106 -53 -224 -53 -365 0 -203 34 -351 116 -510 21 -41 38 -84 36 -95 -2 -15
0 -17 10 -7 18 18 83 15 107 -5 l22 -18 -51 -50 c-39 -38 -53 -46 -62 -37 -9
9 -5 20 22 47 38 39 33 58 -8 34 -30 -16 -41 -61 -21 -85 17 -20 63 -17 84 6
10 11 15 23 12 26 -8 9 11 44 23 44 6 0 10 -8 11 -17 0 -14 3 -13 12 5 9 20 8
27 -10 40 -41 33 -54 84 -31 121 9 15 4 34 -26 105 -21 47 -48 130 -61 184
-118 472 182 994 655 1140 244 75 576 46 761 -67 42 -26 49 -26 49 -3 0 10 20
38 45 62 34 34 48 41 57 32 8 -8 1 -22 -30 -56 -23 -25 -42 -52 -42 -60 0 -16
46 -56 64 -56 7 0 22 9 34 20 12 11 24 20 27 20 10 0 5 -36 -9 -56 -14 -19
-10 -26 59 -97 123 -127 207 -288 246 -470 19 -86 21 -121 16 -236 -8 -190
-41 -302 -132 -457 -145 -245 -404 -421 -685 -465 -103 -16 -313 -6 -415 20
-44 11 -126 44 -182 72 l-102 52 -181 -58 c-99 -32 -184 -55 -187 -51 -4 4 5
43 19 87 23 69 24 80 10 73 -57 -24 -114 -7 -131 38 -6 18 -10 14 -25 -27
l-18 -47 32 -33 c20 -21 30 -40 27 -49 -9 -24 -24 -19 -49 14 l-22 31 -13 -37
c-11 -32 -11 -40 3 -55 19 -21 10 -42 -16 -34 -15 5 -20 -5 -35 -62 -10 -37
-22 -73 -27 -79 -11 -15 -38 -94 -32 -94 2 0 21 7 42 16 20 9 116 41 212 70
96 30 219 69 273 85 l98 31 97 -43 c122 -53 208 -76 347 -90 200 -20 392 8
570 85 268 115 468 309 589 569 234 504 65 1110 -396 1418 -242 161 -511 224
-803 188z m875 -323 c0 -33 -21 -77 -34 -73 -6 2 -10 23 -8 48 2 40 -1 48 -37
83 -33 32 -38 42 -29 54 10 12 20 6 60 -36 31 -33 48 -59 48 -76z m-86 -1667
c53 -58 48 -62 -11 -8 -45 41 -59 59 -45 59 5 0 30 -23 56 -51z"/>
<path d="M3360 4703 c-26 -10 -91 -77 -111 -115 -28 -56 -36 -170 -15 -241 9
-32 21 -55 26 -52 5 3 7 -1 4 -9 -7 -18 86 -165 160 -251 135 -158 256 -247
423 -311 221 -84 287 -85 413 -4 60 39 78 69 86 147 l6 58 -130 63 c-72 34
-138 62 -146 62 -8 0 -29 -20 -46 -45 -42 -61 -86 -105 -105 -105 -9 0 -50 17
-93 37 -42 21 -81 38 -86 38 -4 0 -46 38 -93 85 -84 84 -163 189 -163 216 0 8
15 31 34 51 40 46 56 75 56 103 0 34 -89 243 -112 263 -19 16 -75 22 -108 10z
m-107 -216 c7 -7 28 -31 47 -52 38 -42 16 -30 -37 21 -31 29 -40 44 -27 44 3
0 11 -6 17 -13z m665 -676 c72 -74 130 -136 127 -139 -5 -5 -295 286 -295 296
0 9 38 -26 168 -157z"/>
<path d="M2930 3654 c0 -34 24 -74 37 -61 4 5 0 13 -10 19 -13 7 -15 13 -8 22
8 9 6 18 -4 32 -14 18 -14 17 -15 -12z"/>
<path d="M5191 2555 c-28 -30 -51 -62 -51 -72 0 -24 35 -79 57 -91 16 -9 18
-6 15 26 -3 26 3 47 20 71 29 43 44 48 52 19 11 -44 5 -83 -19 -123 -14 -22
-25 -44 -25 -50 0 -5 9 4 19 22 11 17 29 34 40 38 34 10 61 54 61 97 0 62 -22
86 -102 111 -11 4 -33 -12 -67 -48z"/>
<path d="M5265 2290 c10 -11 20 -20 23 -20 3 0 -3 9 -13 20 -10 11 -20 20 -23
20 -3 0 3 -9 13 -20z"/>
<path d="M1219 5397 c-33 -17 -38 -66 -9 -92 20 -18 24 -18 48 -4 17 9 28 25
30 42 2 15 8 27 13 27 5 0 9 5 9 12 0 7 -20 -8 -45 -32 -35 -34 -48 -41 -57
-32 -9 9 -5 19 21 46 35 36 30 52 -10 33z"/>
<path d="M4798 2076 c-42 -31 -4 -105 46 -92 27 7 39 23 50 69 6 26 5 26 -30
-13 -20 -22 -42 -40 -50 -40 -26 0 -24 19 6 48 16 17 30 33 30 36 0 11 -35 5
-52 -8z"/>
<path d="M3000 6920 c0 -5 7 -7 15 -4 8 4 15 8 15 10 0 2 -7 4 -15 4 -8 0 -15
-4 -15 -10z"/>
<path d="M2944 6901 c3 -5 15 -7 26 -4 28 7 25 13 -6 13 -14 0 -23 -4 -20 -9z"/>
<path d="M4270 6781 l-25 -7 25 -8 c33 -11 41 -11 63 -1 11 4 28 2 43 -5 13
-8 27 -11 30 -7 4 3 15 2 25 -4 15 -7 19 -6 19 5 0 19 -136 40 -180 27z"/>
<path d="M2389 6713 c-13 -16 -12 -17 4 -4 16 13 21 21 13 21 -2 0 -10 -8 -17
-17z"/>
<path d="M4228 6603 c7 -3 16 -2 19 1 4 3 -2 6 -13 5 -11 0 -14 -3 -6 -6z"/>
<path d="M4671 6535 c0 -12 29 -49 74 -94 41 -41 72 -77 69 -80 -2 -3 -42 32
-87 77 -81 81 -102 93 -124 71 -6 -6 -17 -8 -24 -3 -22 13 -108 12 -127 -2 -9
-7 -25 -14 -34 -14 -24 0 -23 -16 2 -23 24 -6 38 -36 21 -47 -21 -12 37 -22
59 -10 27 14 25 18 -5 12 -27 -5 -35 12 -9 22 9 3 38 6 65 6 39 0 72 -11 155
-50 58 -28 109 -48 114 -45 5 3 11 1 15 -5 3 -5 13 -10 21 -10 10 0 3 13 -20
38 -20 20 -36 41 -36 46 0 11 -48 56 -61 56 -5 0 -15 11 -21 25 -6 14 -17 25
-24 25 -7 0 -15 6 -17 13 -3 6 -6 3 -6 -8z"/>
<path d="M3756 6504 c-9 -8 -16 -16 -16 -17 0 -1 36 -1 80 1 69 3 78 5 66 18
-20 20 -110 19 -130 -2z"/>
<path d="M4076 6484 c-9 -22 1 -34 30 -34 13 0 29 -9 36 -20 15 -23 38 -27 38
-5 0 8 -8 15 -17 15 -10 0 -32 13 -50 30 -25 24 -32 26 -37 14z"/>
<path d="M2182 6372 l-31 -29 51 -49 c28 -27 48 -43 44 -36 -4 7 3 25 18 43
29 34 32 55 12 82 -20 25 -60 21 -94 -11z"/>
<path d="M4687 6279 c7 -7 15 -10 18 -7 3 3 -2 9 -12 12 -14 6 -15 5 -6 -5z"/>
<path d="M1774 6053 c-12 -2 -36 -20 -54 -40 -29 -31 -32 -40 -27 -80 3 -27
14 -54 28 -69 29 -31 40 -30 33 4 -4 20 4 41 27 77 l32 50 13 -30 c15 -34 10
-74 -17 -127 -11 -21 -19 -43 -19 -50 1 -7 7 2 15 20 8 17 21 32 28 32 8 0 29
16 46 35 42 48 43 100 2 144 -16 17 -36 31 -44 31 -9 0 -21 2 -29 4 -7 2 -23
1 -34 -1z"/>
<path d="M5140 5940 c0 -27 50 -100 69 -100 3 0 6 21 6 46 -1 36 -6 50 -24 65
-34 28 -51 24 -51 -11z"/>
<path d="M5267 5842 l-19 -37 24 23 c13 12 30 22 37 22 11 0 11 3 1 15 -18 22
-23 19 -43 -23z"/>
<path d="M1802 5750 c7 -11 19 -22 28 -25 8 -4 4 5 -9 19 -29 31 -36 33 -19 6z"/>
<path d="M5270 5736 c0 -3 9 -10 20 -16 11 -6 20 -8 20 -6 0 3 -9 10 -20 16
-11 6 -20 8 -20 6z"/>
<path d="M6247 3527 c-4 -10 -7 -28 -7 -40 1 -20 2 -20 11 -4 6 10 9 28 7 40
-3 20 -4 20 -11 4z"/>
<path d="M731 3460 c0 -8 4 -22 9 -30 12 -18 12 -2 0 25 -6 13 -9 15 -9 5z"/>
<path d="M754 3365 c8 -64 32 -174 40 -182 11 -12 6 42 -14 131 -22 101 -35
126 -26 51z"/>
<path d="M1030 3240 c0 -5 5 -10 10 -10 6 0 10 5 10 10 0 6 -4 10 -10 10 -5 0
-10 -4 -10 -10z"/>
<path d="M803 3163 c3 -5 9 -25 12 -44 7 -36 84 -268 95 -284 4 -5 17 -37 30
-70 39 -102 141 -307 182 -368 21 -31 50 -64 63 -73 14 -9 25 -23 25 -31 0 -8
4 -11 10 -8 6 4 7 -1 3 -11 -4 -10 0 -20 10 -26 10 -5 17 -16 17 -25 0 -29 63
-113 80 -106 8 3 23 6 33 7 10 0 17 8 17 19 0 28 -37 93 -65 115 -14 11 -25
24 -25 29 0 5 -13 30 -29 55 -16 25 -27 49 -24 52 4 3 1 6 -5 6 -7 0 -12 9
-12 20 0 11 -6 23 -13 26 -10 3 -14 26 -14 77 -1 66 -4 77 -37 126 -20 29 -36
61 -36 70 0 10 -11 31 -25 47 -14 16 -25 34 -25 41 0 7 -7 10 -16 6 -8 -3 -25
4 -40 17 l-24 23 0 -30 c0 -26 -3 -30 -20 -26 -14 4 -20 14 -20 32 0 14 -9 40
-20 56 -11 17 -20 38 -20 48 0 10 -17 50 -37 90 -21 39 -40 87 -43 106 -3 19
-11 36 -19 39 -8 3 -11 0 -8 -5z"/>
<path d="M1754 2590 c-64 -26 -84 -115 -38 -169 14 -17 29 -31 33 -31 3 0 7
18 7 39 1 36 36 99 56 100 4 1 12 -17 18 -40 10 -36 9 -46 -15 -91 -14 -27
-24 -57 -22 -66 3 -12 5 -10 6 5 1 15 17 34 44 54 48 35 66 62 67 101 1 79
-79 129 -156 98z"/>
<path d="M1530 2391 c5 -11 15 -23 21 -27 6 -3 3 5 -6 20 -20 30 -30 35 -15 7z"/>
<path d="M1680 2275 c0 -8 4 -15 10 -15 5 0 7 7 4 15 -4 8 -8 15 -10 15 -2 0
-4 -7 -4 -15z"/>
<path d="M1810 2286 c0 -2 7 -7 16 -10 8 -3 12 -2 9 4 -6 10 -25 14 -25 6z"/>
<path d="M1700 2236 c0 -7 8 -20 18 -27 15 -13 16 -12 4 3 -8 9 -11 22 -7 28
3 5 1 10 -4 10 -6 0 -11 -6 -11 -14z"/>
<path d="M1621 2237 c2 -1 13 -9 24 -17 19 -14 19 -14 6 3 -7 9 -18 17 -24 17
-6 0 -8 -1 -6 -3z"/>
<path d="M1357 2088 c-26 -9 -27 -11 -10 -23 15 -11 21 -11 36 2 33 30 22 39
-26 21z"/>
<path d="M1412 2048 c-18 -20 -19 -26 -7 -41 15 -21 22 -14 30 31 6 38 5 39
-23 10z"/>
<path d="M1440 1965 c0 -8 7 -15 16 -15 14 0 14 3 4 15 -7 8 -14 15 -16 15 -2
0 -4 -7 -4 -15z"/>
<path d="M2320 1689 c0 -5 5 -7 10 -4 6 3 10 8 10 11 0 2 -4 4 -10 4 -5 0 -10
-5 -10 -11z"/>
<path d="M2728 1463 c7 -3 16 -2 19 1 4 3 -2 6 -13 5 -11 0 -14 -3 -6 -6z"/>
<path d="M1767 1422 c-26 -29 -35 -66 -57 -247 -12 -93 -39 -276 -61 -405 -56
-322 -55 -317 -34 -340 10 -11 31 -20 46 -20 33 0 58 27 125 137 155 253 236
358 272 351 27 -5 40 -46 52 -163 15 -144 33 -206 71 -244 36 -37 86 -42 113
-12 16 18 15 22 -22 93 -39 74 -42 85 -72 293 -15 100 -32 142 -64 156 -84 38
-216 -78 -346 -305 -30 -52 -58 -95 -61 -96 -10 0 19 165 57 325 20 83 45 186
55 230 10 44 20 113 21 153 3 67 1 76 -21 93 -29 24 -53 24 -74 1z"/>
<path d="M2820 1430 c-8 -5 -10 -10 -5 -10 6 0 17 5 25 10 8 5 11 10 5 10 -5
0 -17 -5 -25 -10z"/>
<path d="M2865 1420 c3 -5 11 -10 16 -10 6 0 7 5 4 10 -3 6 -11 10 -16 10 -6
0 -7 -4 -4 -10z"/>
<path d="M3366 1295 c-9 -9 -20 -35 -26 -58 -30 -116 -53 -183 -68 -194 -9 -8
-46 -13 -89 -13 -59 0 -74 -3 -81 -17 -11 -21 -6 -41 16 -65 11 -13 30 -18 74
-18 42 0 58 -4 58 -13 0 -8 -13 -79 -30 -158 -16 -79 -30 -162 -30 -184 0
-106 46 -166 134 -173 69 -6 111 9 183 62 61 44 101 102 90 130 -11 27 -41 18
-101 -29 -109 -84 -178 -82 -191 7 -6 41 29 251 56 335 12 37 16 38 172 54
128 13 150 23 145 68 -3 26 -4 26 -83 26 -44 0 -105 -3 -136 -7 l-57 -6 30
110 c27 102 28 111 13 134 -18 28 -56 32 -79 9z"/>
<path d="M3965 1109 c-71 -27 -155 -89 -189 -137 -23 -32 -31 -56 -34 -102
l-4 -61 44 -42 c24 -23 86 -64 137 -92 51 -27 102 -60 112 -74 18 -22 18 -25
3 -42 -35 -39 -122 -62 -229 -62 -111 1 -135 -6 -135 -42 0 -52 46 -71 154
-62 152 12 304 92 321 168 16 73 -34 133 -167 200 -100 51 -128 77 -128 123 0
44 46 84 138 121 57 23 67 24 99 13 32 -12 36 -11 54 11 22 27 18 57 -13 84
-27 23 -99 21 -163 -4z"/>
<path d="M5090 1100 c-26 -26 -28 -38 -35 -215 -9 -234 -34 -403 -116 -777
-13 -55 -12 -58 11 -83 51 -55 102 -14 115 93 11 93 54 343 61 353 3 6 15 -3
25 -20 32 -53 115 -55 216 -6 76 37 208 169 251 251 110 211 68 404 -88 404
-94 0 -212 -89 -321 -242 l-51 -73 6 45 c3 25 9 89 12 142 6 81 4 101 -10 122
-20 31 -49 33 -76 6z m456 -131 c32 -36 26 -130 -15 -213 -67 -137 -214 -257
-296 -242 -101 19 -75 140 70 321 108 135 196 184 241 134z"/>
<path d="M5900 1100 c-26 -26 -28 -38 -35 -215 -9 -234 -34 -403 -116 -777
-13 -55 -12 -58 11 -83 51 -55 102 -14 115 93 11 93 54 343 61 353 3 6 15 -3
25 -20 32 -53 115 -55 216 -6 76 37 208 169 251 251 110 211 68 404 -88 404
-94 0 -212 -89 -321 -242 l-51 -73 6 45 c3 25 9 89 12 142 6 81 4 101 -10 122
-20 31 -49 33 -76 6z m456 -131 c32 -36 26 -130 -15 -213 -67 -137 -214 -257
-296 -242 -101 19 -75 140 70 321 108 135 196 184 241 134z"/>
<path d="M1455 1086 c-38 -38 -91 -154 -145 -317 -27 -83 -55 -157 -61 -165
-18 -22 -37 0 -85 101 -48 104 -64 168 -64 265 0 60 -3 71 -21 80 -11 7 -27 9
-35 6 -20 -8 -69 -88 -173 -286 -51 -96 -100 -183 -111 -194 -18 -18 -19 -18
-38 20 -45 90 -57 152 -57 310 -1 160 -7 184 -47 184 -61 0 -93 -60 -83 -159
18 -176 92 -428 146 -494 63 -77 97 -45 234 226 47 92 90 167 94 167 5 0 21
-37 36 -82 41 -126 100 -243 135 -268 17 -12 48 -24 69 -27 51 -7 54 -1 131
222 60 172 111 289 151 347 11 14 19 35 19 45 0 46 -56 58 -95 19z"/>
<path d="M2745 1087 c-60 -24 -91 -46 -151 -108 -105 -111 -174 -232 -195
-343 -15 -81 -4 -133 36 -173 27 -27 41 -33 77 -33 69 0 158 50 243 136 l72
73 7 -55 c16 -142 88 -210 160 -153 33 26 33 43 0 72 -15 12 -33 36 -40 54
-20 46 -17 187 6 318 20 120 16 145 -26 145 -14 0 -27 7 -31 18 -3 9 -15 27
-26 40 -23 25 -80 29 -132 9z m86 -108 c30 -30 23 -116 -17 -194 -57 -115
-230 -270 -279 -252 -23 9 -37 56 -30 98 13 78 111 245 181 310 35 32 82 58
107 59 9 0 27 -10 38 -21z"/>
<path d="M4595 1087 c-60 -24 -91 -46 -151 -108 -105 -111 -174 -232 -195
-343 -15 -81 -4 -133 36 -173 27 -27 41 -33 77 -33 69 0 158 50 243 136 l72
73 7 -55 c16 -142 88 -210 160 -153 33 26 33 43 0 72 -15 12 -33 36 -40 54
-20 46 -17 187 6 318 20 120 16 145 -26 145 -14 0 -27 7 -31 18 -3 9 -15 27
-26 40 -23 25 -80 29 -132 9z m86 -108 c30 -30 23 -116 -17 -194 -57 -115
-230 -270 -279 -252 -23 9 -37 56 -30 98 13 78 111 245 181 310 35 32 82 58
107 59 9 0 27 -10 38 -21z"/>
</g>
</svg>
